<?xml version="1.0" encoding="UTF-8" standalone="no"?><!-- Generator: Gravit.io --><svg xmlns="http://www.w3.org/2000/svg" xmlns:xlink="http://www.w3.org/1999/xlink" style="isolation:isolate" viewBox="0 0 50 50" width="60pt" height="60pt"><path d=" M 27 26.062 Q 30.422 24.965 25.419 22.706 Q 40.653 23.997 27 26.062 L 27 26.062 L 27 26.062 Z  M 37.791 24.841 Q 45.322 26.562 34.563 35.126 Q 50.744 24.583 37.791 24.841 L 37.791 24.841 Z  M 23.278 20.404 C 29.646 20.566 34.62 21.9 34.62 23.519 C 34.62 25.248 28.953 26.651 21.973 26.651 C 14.993 26.651 9.327 25.248 9.327 23.519 L 9.327 23.519 L 9.327 23.519 C 9.327 22.242 12.423 21.142 16.858 20.655 L 16.858 20.655 Q 18.283 22.169 20.87 24.023 Q 19.086 22.05 18.388 20.516 C 19.14 20.461 19.92 20.423 20.725 20.405 C 20.777 22.49 23.01 24.737 24.958 25.003 Q 21.821 22.056 23.278 20.404 L 23.278 20.404 L 23.278 20.404 L 23.278 20.404 Z  M 20.869 19.47 C 19.903 19.493 18.964 19.544 18.063 19.62 L 18.063 19.62 Q 16.879 15.097 27.024 15.158 Q 41.269 15.244 37.482 0.87 Q 40.064 13.221 24.011 13.996 Q 12.087 14.571 16.145 19.825 C 11.273 20.466 7.888 21.875 7.888 23.508 L 7.888 23.508 C 7.888 25.744 14.233 27.56 22.049 27.56 C 26.436 27.56 30.36 26.988 32.958 26.09 Q 37.507 33.726 26.355 38.333 Q 38.724 35.786 36.207 23.594 L 36.207 23.594 C 36.209 23.566 36.21 23.537 36.21 23.508 C 36.21 21.52 31.192 19.864 24.584 19.521 Q 26.656 18.606 31.155 18.375 Q 43.722 17.73 39.849 8.434 Q 40.666 16.998 28.487 16.74 C 23.53 16.635 21.396 17.898 20.869 19.47 L 20.869 19.47 L 20.869 19.47 L 20.869 19.47 Z  M 36.874 36.052 Q 47.15 41.849 34.469 45.521 Q 21.788 49.194 3.7 44.595 Q 14.73 49.997 33.436 48.964 C 52.142 47.931 47.87 38.139 36.91 36.073 L 36.874 36.052 Z " fill-rule="evenodd" fill="rgb(23,23,23)"/></svg>