<?xml version="1.0" encoding="UTF-8" standalone="no"?><!-- Generator: Gravit.io --><svg xmlns="http://www.w3.org/2000/svg" xmlns:xlink="http://www.w3.org/1999/xlink" style="isolation:isolate" viewBox="0 0 160 50" width="160pt" height="50pt"><path d=" M 7.54 19.899 L 10.153 19.899 L 10.153 19.899 Q 11.024 20.879 11.296 21.841 L 11.296 21.841 L 11.296 21.841 Q 11.569 22.802 11.569 23.891 L 11.569 23.891 L 11.569 38.661 L 8.085 38.661 L 8.085 24.472 L 8.085 24.472 Q 8.085 23.456 7.958 22.313 L 7.958 22.313 L 7.958 22.313 Q 7.831 21.169 7.54 19.899 L 7.54 19.899 L 7.54 19.899 Z  M 19.77 38.661 L 19.77 25.016 L 19.77 25.016 Q 19.77 23.746 19.244 22.948 L 19.244 22.948 L 19.244 22.948 Q 18.718 22.149 17.665 22.149 L 17.665 22.149 L 17.665 22.149 Q 17.23 22.149 16.903 22.222 L 16.903 22.222 L 16.903 22.222 Q 16.577 22.294 16.105 22.403 L 16.105 22.403 L 16.105 22.403 Q 15.052 22.657 14.181 22.44 L 14.181 22.44 L 14.181 22.44 Q 13.31 22.222 12.548 21.423 L 12.548 21.423 L 12.548 21.423 Q 14.472 20.298 15.778 19.917 L 15.778 19.917 L 15.778 19.917 Q 17.085 19.536 18.065 19.536 L 18.065 19.536 L 18.065 19.536 Q 19.117 19.536 20.06 19.808 L 20.06 19.808 L 20.06 19.808 Q 21.004 20.081 21.712 20.77 L 21.712 20.77 L 21.712 20.77 Q 22.419 21.46 22.837 22.585 L 22.837 22.585 L 22.837 22.585 Q 23.254 23.71 23.254 25.379 L 23.254 25.379 L 23.254 38.661 L 19.77 38.661 L 19.77 38.661 Z  M 31.419 38.661 L 31.419 25.016 L 31.419 25.016 Q 31.419 23.746 30.875 22.948 L 30.875 22.948 L 30.875 22.948 Q 30.331 22.149 29.169 22.149 L 29.169 22.149 L 29.169 22.149 Q 28.734 22.149 28.371 22.24 L 28.371 22.24 L 28.371 22.24 Q 28.008 22.331 27.5 22.44 L 27.5 22.44 L 27.5 22.44 Q 26.448 22.694 25.54 22.476 L 25.54 22.476 L 25.54 22.476 Q 24.633 22.258 23.871 21.46 L 23.871 21.46 L 23.871 21.46 Q 25.831 20.298 27.192 19.917 L 27.192 19.917 L 27.192 19.917 Q 28.552 19.536 29.532 19.536 L 29.532 19.536 L 29.532 19.536 Q 30.621 19.536 31.583 19.808 L 31.583 19.808 L 31.583 19.808 Q 32.544 20.081 33.288 20.77 L 33.288 20.77 L 33.288 20.77 Q 34.032 21.46 34.468 22.585 L 34.468 22.585 L 34.468 22.585 Q 34.903 23.71 34.903 25.379 L 34.903 25.379 L 34.903 38.661 L 31.419 38.661 L 31.419 38.661 Z  M 41.871 19.899 L 45.863 32.165 L 45.863 32.165 Q 46.153 33.036 46.226 33.944 L 46.226 33.944 L 46.226 33.944 Q 46.298 34.851 46.19 35.667 L 46.19 35.667 L 46.19 35.667 Q 46.081 36.484 45.79 37.173 L 45.79 37.173 L 45.79 37.173 Q 45.5 37.863 45.101 38.298 L 45.101 38.298 L 38.315 19.899 L 41.871 19.899 L 41.871 19.899 Z  M 42.125 44.976 L 42.125 44.976 L 42.125 44.976 Q 43.177 44.976 43.885 44.395 L 43.885 44.395 L 43.885 44.395 Q 44.593 43.815 45.155 42.78 L 45.155 42.78 L 45.155 42.78 Q 45.718 41.746 46.19 40.349 L 46.19 40.349 L 46.19 40.349 Q 46.661 38.952 47.242 37.319 L 47.242 37.319 L 52.867 19.899 L 56.387 19.899 L 49.746 38.262 L 49.746 38.262 Q 49.02 40.185 48.385 41.873 L 48.385 41.873 L 48.385 41.873 Q 47.75 43.56 46.915 44.831 L 46.915 44.831 L 46.915 44.831 Q 46.081 46.101 44.956 46.845 L 44.956 46.845 L 44.956 46.845 Q 43.831 47.589 42.125 47.589 L 42.125 47.589 L 42.125 47.589 Q 41.399 47.552 40.583 47.425 L 40.583 47.425 L 40.583 47.425 Q 39.766 47.298 39.004 47.044 L 39.004 47.044 L 39.875 44.649 L 39.875 44.649 Q 41.073 44.976 42.125 44.976 Z  M 70.141 39.097 L 70.141 39.097 L 70.141 39.097 Q 68.907 39.097 67.782 38.988 L 67.782 38.988 L 67.782 38.988 Q 66.657 38.879 65.06 38.48 L 65.06 38.48 L 65.06 38.48 Q 65.569 37.536 66.403 36.919 L 66.403 36.919 L 66.403 36.919 Q 67.238 36.302 68.472 36.411 L 68.472 36.411 L 68.472 36.411 Q 69.052 36.484 69.361 36.484 L 69.361 36.484 L 69.361 36.484 Q 69.669 36.484 70.105 36.484 L 70.105 36.484 L 70.105 36.484 Q 71.847 36.484 73.353 35.613 L 73.353 35.613 L 73.353 35.613 Q 74.859 34.742 75.984 33.236 L 75.984 33.236 L 75.984 33.236 Q 77.109 31.73 77.744 29.716 L 77.744 29.716 L 77.744 29.716 Q 78.379 27.702 78.379 25.415 L 78.379 25.415 L 78.379 25.415 Q 78.379 20.153 75.712 17.304 L 75.712 17.304 L 75.712 17.304 Q 73.044 14.456 67.673 14.456 L 67.673 14.456 L 67.673 14.456 Q 66.585 14.456 65.532 14.528 L 65.532 14.528 L 65.532 14.528 Q 64.48 14.601 63.609 14.71 L 63.609 14.71 L 63.609 38.661 L 60.161 38.661 L 60.161 12.713 L 60.161 12.713 Q 61.903 12.314 63.99 12.078 L 63.99 12.078 L 63.99 12.078 Q 66.077 11.843 67.673 11.843 L 67.673 11.843 L 67.673 11.843 Q 71.121 11.843 73.806 12.767 L 73.806 12.767 L 73.806 12.767 Q 76.492 13.691 78.325 15.449 L 78.325 15.449 L 78.325 15.449 Q 80.157 17.207 81.119 19.725 L 81.119 19.725 L 81.119 19.725 Q 82.081 22.244 82.081 25.434 L 82.081 25.434 L 82.081 25.434 Q 82.081 28.405 81.119 30.906 L 81.119 30.906 L 81.119 30.906 Q 80.157 33.407 78.524 35.237 L 78.524 35.237 L 78.524 35.237 Q 76.891 37.067 74.732 38.082 L 74.732 38.082 L 74.732 38.082 Q 72.573 39.097 70.141 39.097 Z  M 93.585 12.278 L 96.96 12.278 L 106.468 38.661 L 102.766 38.661 L 95.399 17.395 L 95.145 16.343 L 94.891 17.395 L 90.827 29.044 L 90.427 29.806 L 90.863 29.734 L 95.762 29.734 L 95.762 29.734 Q 97.069 29.734 97.758 30.514 L 97.758 30.514 L 97.758 30.514 Q 98.448 31.294 98.847 32.347 L 98.847 32.347 L 89.702 32.347 L 87.524 38.661 L 84.077 38.661 L 93.585 12.278 L 93.585 12.278 Z  M 117.935 14.456 L 117.935 14.456 L 117.935 14.456 Q 116.919 14.456 116.139 14.764 L 116.139 14.764 L 116.139 14.764 Q 115.359 15.073 114.815 15.617 L 114.815 15.617 L 114.815 15.617 Q 114.27 16.161 113.998 16.869 L 113.998 16.869 L 113.998 16.869 Q 113.726 17.577 113.726 18.375 L 113.726 18.375 L 113.726 18.375 Q 113.726 19.79 114.633 20.788 L 114.633 20.788 L 114.633 20.788 Q 115.54 21.786 116.919 22.621 L 116.919 22.621 L 116.919 22.621 Q 118.298 23.456 119.877 24.272 L 119.877 24.272 L 119.877 24.272 Q 121.456 25.089 122.835 26.141 L 122.835 26.141 L 122.835 26.141 Q 124.214 27.194 125.121 28.609 L 125.121 28.609 L 125.121 28.609 Q 126.028 30.024 126.028 32.093 L 126.028 32.093 L 126.028 32.093 Q 126.028 33.435 125.466 34.706 L 125.466 34.706 L 125.466 34.706 Q 124.903 35.976 123.796 36.956 L 123.796 36.956 L 123.796 36.956 Q 122.69 37.935 121.093 38.516 L 121.093 38.516 L 121.093 38.516 Q 119.496 39.097 117.427 39.097 L 117.427 39.097 L 117.427 39.097 Q 116.665 39.097 115.722 39.006 L 115.722 39.006 L 115.722 39.006 Q 114.778 38.915 113.798 38.734 L 113.798 38.734 L 113.798 38.734 Q 112.819 38.552 111.802 38.226 L 111.802 38.226 L 111.802 38.226 Q 110.786 37.899 109.879 37.464 L 109.879 37.464 L 110.823 35.105 L 110.823 35.105 Q 112.456 35.831 114.107 36.157 L 114.107 36.157 L 114.107 36.157 Q 115.758 36.484 117.028 36.484 L 117.028 36.484 L 117.028 36.484 Q 119.605 36.484 121.02 35.197 L 121.02 35.197 L 121.02 35.197 Q 122.435 33.911 122.435 32.027 L 122.435 32.027 L 122.435 32.027 Q 122.435 30.469 121.528 29.436 L 121.528 29.436 L 121.528 29.436 Q 120.621 28.403 119.278 27.57 L 119.278 27.57 L 119.278 27.57 Q 117.935 26.736 116.339 25.957 L 116.339 25.957 L 116.339 25.957 Q 114.742 25.178 113.399 24.181 L 113.399 24.181 L 113.399 24.181 Q 112.056 23.185 111.149 21.808 L 111.149 21.808 L 111.149 21.808 Q 110.242 20.431 110.242 18.402 L 110.242 18.402 L 110.242 18.402 Q 110.242 17.061 110.768 15.865 L 110.768 15.865 L 110.768 15.865 Q 111.294 14.669 112.274 13.763 L 112.274 13.763 L 112.274 13.763 Q 113.254 12.857 114.597 12.35 L 114.597 12.35 L 114.597 12.35 Q 115.94 11.843 117.573 11.843 L 117.573 11.843 L 117.573 11.843 Q 119.133 11.843 120.712 12.093 L 120.712 12.093 L 120.712 12.093 Q 122.29 12.344 124.141 12.917 L 124.141 12.917 L 123.161 15.261 L 123.161 15.261 Q 121.601 14.786 120.276 14.621 L 120.276 14.621 L 120.276 14.621 Q 118.952 14.456 117.935 14.456 Z  M 138.984 23.565 L 147.73 23.565 L 147.73 12.278 L 151.177 12.278 L 151.177 38.661 L 147.73 38.661 L 147.73 26.105 L 135.899 26.105 L 135.899 26.105 Q 136.298 25.052 137.006 24.308 L 137.006 24.308 L 137.006 24.308 Q 137.714 23.565 138.984 23.565 L 138.984 23.565 L 138.984 23.565 Z  M 131.073 38.661 L 131.073 12.278 L 134.52 12.278 L 134.52 38.661 L 131.073 38.661 L 131.073 38.661 Z " fill="rgb(255,255,255)"/></svg>