<?xml version="1.0" encoding="UTF-8" standalone="no"?><!-- Generator: Gravit.io --><svg xmlns="http://www.w3.org/2000/svg" xmlns:xlink="http://www.w3.org/1999/xlink" style="isolation:isolate" viewBox="0 0 30 30" width="30pt" height="30pt"><g><path d=" M 8.667 11.833 L 11.833 11.833 L 11.833 8.667 L 8.667 8.667 L 8.667 11.833 Z  M 13.417 21.333 L 16.583 21.333 L 16.583 18.167 L 13.417 18.167 L 13.417 21.333 Z  M 8.667 21.333 L 11.833 21.333 L 11.833 18.167 L 8.667 18.167 L 8.667 21.333 Z  M 8.667 16.583 L 11.833 16.583 L 11.833 13.417 L 8.667 13.417 L 8.667 16.583 Z  M 13.417 16.583 L 16.583 16.583 L 16.583 13.417 L 13.417 13.417 L 13.417 16.583 Z  M 18.167 8.667 L 18.167 11.833 L 21.333 11.833 L 21.333 8.667 L 18.167 8.667 Z  M 13.417 11.833 L 16.583 11.833 L 16.583 8.667 L 13.417 8.667 L 13.417 11.833 Z  M 18.167 16.583 L 21.333 16.583 L 21.333 13.417 L 18.167 13.417 L 18.167 16.583 Z  M 18.167 21.333 L 21.333 21.333 L 21.333 18.167 L 18.167 18.167 L 18.167 21.333 Z " fill="rgb(0,255,255)"/><path d=" M 5.5 5.5 L 24.5 5.5 L 24.5 24.5 L 5.5 24.5 L 5.5 5.5 Z " fill="none"/></g></svg>