<?xml version="1.0" encoding="UTF-8" standalone="no"?><!-- Generator: Gravit.io --><svg xmlns="http://www.w3.org/2000/svg" xmlns:xlink="http://www.w3.org/1999/xlink" style="isolation:isolate" viewBox="0 0 30 30" width="30pt" height="30pt"><g><path d=" M 23 5 L 7 5 C 5.9 5 5.01 5.9 5.01 7 L 5 25 L 9 21 L 23 21 C 24.1 21 25 20.1 25 19 L 25 7 C 25 5.9 24.1 5 23 5 Z  M 9 12 L 21 12 L 21 14 L 9 14 L 9 12 Z  M 17 17 L 9 17 L 9 15 L 17 15 L 17 17 Z  M 21 11 L 9 11 L 9 9 L 21 9 L 21 11 Z " fill="none" vector-effect="non-scaling-stroke" stroke-width="1" stroke="rgb(255,255,255)" stroke-linejoin="miter" stroke-linecap="butt" stroke-miterlimit="4"/><path d=" M 3 3 L 27 3 L 27 27 L 3 27 L 3 3 Z " fill="none"/></g></svg>