<?xml version="1.0" encoding="UTF-8" standalone="no"?><!-- Generator: Gravit.io --><svg xmlns="http://www.w3.org/2000/svg" xmlns:xlink="http://www.w3.org/1999/xlink" style="isolation:isolate" viewBox="0 0 30 30" width="30pt" height="30pt"><defs><clipPath id="_clipPath_wCGPMmUxpCwdvymb45W3pbupPp2kT24C"><rect width="30" height="30"/></clipPath></defs><g clip-path="url(#_clipPath_wCGPMmUxpCwdvymb45W3pbupPp2kT24C)"><rect width="30" height="30" style="fill:rgb(0,0,0)" fill-opacity="0"/><g><path d=" M 23 5 L 7 5 C 5.9 5 5.01 5.9 5.01 7 L 5 25 L 9 21 L 23 21 C 24.1 21 25 20.1 25 19 L 25 7 C 25 5.9 24.1 5 23 5 Z  M 12 14 L 10 14 L 10 12 L 12 12 L 12 14 Z  M 16 14 L 14 14 L 14 12 L 16 12 L 16 14 Z  M 20 14 L 18 14 L 18 12 L 20 12 L 20 14 Z " fill="none" vector-effect="non-scaling-stroke" stroke-width="1" stroke="rgb(0,255,255)" stroke-linejoin="miter" stroke-linecap="butt" stroke-miterlimit="4"/><path d=" M 3 3 L 27 3 L 27 27 L 3 27 L 3 3 Z " fill="none"/></g></g></svg>