<?xml version="1.0" encoding="UTF-8" standalone="no"?><!-- Generator: Gravit.io --><svg xmlns="http://www.w3.org/2000/svg" xmlns:xlink="http://www.w3.org/1999/xlink" style="isolation:isolate" viewBox="0 0 30 30" width="30pt" height="30pt"><path d=" M 15.87 15.462 Q 17.359 14.985 15.182 14.002 Q 21.812 14.563 15.87 15.462 L 15.87 15.462 L 15.87 15.462 Z  M 20.566 14.931 Q 23.843 15.68 19.161 19.406 Q 26.202 14.818 20.566 14.931 L 20.566 14.931 Z  M 14.251 13 C 17.022 13.071 19.186 13.651 19.186 14.356 C 19.186 15.108 16.72 15.718 13.683 15.718 C 10.646 15.718 8.18 15.108 8.18 14.356 L 8.18 14.356 L 8.18 14.356 C 8.18 13.8 9.527 13.321 11.457 13.109 L 11.457 13.109 Q 12.077 13.768 13.203 14.575 Q 12.427 13.716 12.123 13.049 C 12.45 13.025 12.789 13.008 13.14 13.001 C 13.163 13.908 14.134 14.886 14.982 15.001 Q 13.617 13.719 14.251 13 L 14.251 13 L 14.251 13 L 14.251 13 Z  M 13.202 12.594 C 12.782 12.604 12.374 12.626 11.981 12.659 L 11.981 12.659 Q 11.466 10.691 15.881 10.717 Q 22.079 10.755 20.431 4.5 Q 21.555 9.875 14.57 10.212 Q 9.381 10.462 11.147 12.748 C 9.027 13.027 7.554 13.64 7.554 14.351 L 7.554 14.351 C 7.554 15.324 10.315 16.114 13.716 16.114 C 15.625 16.114 17.332 15.865 18.463 15.474 Q 20.443 18.797 15.59 20.802 Q 20.972 19.693 19.877 14.388 L 19.877 14.388 C 19.878 14.376 19.878 14.363 19.878 14.351 C 19.878 13.486 17.695 12.765 14.819 12.616 Q 15.721 12.218 17.678 12.117 Q 23.147 11.836 21.461 7.791 Q 21.817 11.518 16.517 11.406 C 14.36 11.36 13.432 11.91 13.202 12.594 L 13.202 12.594 L 13.202 12.594 L 13.202 12.594 Z  M 20.167 19.809 Q 24.639 22.332 19.12 23.93 Q 13.602 25.528 5.731 23.527 Q 10.531 25.877 18.671 25.428 C 26.811 24.978 24.952 20.717 20.183 19.818 L 20.167 19.809 Z " fill-rule="evenodd" fill="rgb(235,235,235)"/></svg>