<?xml version="1.0" encoding="UTF-8" standalone="no"?><!-- Generator: Gravit.io --><svg xmlns="http://www.w3.org/2000/svg" xmlns:xlink="http://www.w3.org/1999/xlink" style="isolation:isolate" viewBox="0 0 30 30" width="30pt" height="30pt"><defs><clipPath id="_clipPath_JeNjLNhMfqtQ2LxTO26l6i7eGYnvVkBX"><rect width="30" height="30"/></clipPath></defs><g clip-path="url(#_clipPath_JeNjLNhMfqtQ2LxTO26l6i7eGYnvVkBX)"><rect width="30" height="30" style="fill:rgb(0,0,0)" fill-opacity="0"/><g><path d=" M 3 3 L 27 3 L 27 27 L 3 27 L 3 3 Z  M 3 3 L 27 3 L 27 27 L 3 27 L 3 3 Z  M 3 3 L 27 3 L 27 27 L 3 27 L 3 3 Z " fill="none"/><path d=" M 23 3 L 7 3 L 7 5 L 23 5 L 23 3 Z  M 7 27 L 23 27 L 23 25 L 7 25 L 7 27 Z  M 23 7 L 7 7 C 5.9 7 5 7.9 5 9 L 5 21 C 5 22.1 5.9 23 7 23 L 23 23 C 24.1 23 25 22.1 25 21 L 25 9 C 25 7.9 24.1 7 23 7 Z  M 15 9.75 C 16.24 9.75 17.25 10.76 17.25 12 C 17.25 13.24 16.24 14.25 15 14.25 C 13.76 14.25 12.75 13.24 12.75 12 C 12.75 10.76 13.76 9.75 15 9.75 Z  M 20 20 L 10 20 L 10 18.5 C 10 16.83 13.33 16 15 16 C 16.67 16 20 16.83 20 18.5 L 20 20 Z " fill="none" vector-effect="non-scaling-stroke" stroke-width="1" stroke="rgb(0,255,255)" stroke-linejoin="miter" stroke-linecap="butt" stroke-miterlimit="4"/></g></g></svg>