<?xml version="1.0" encoding="UTF-8" standalone="no"?><!-- Generator: Gravit.io --><svg xmlns="http://www.w3.org/2000/svg" xmlns:xlink="http://www.w3.org/1999/xlink" style="isolation:isolate" viewBox="0 0 30 30" width="30pt" height="30pt"><g><path d=" M 3 3 L 27 3 L 27 27 L 3 27 L 3 3 Z " fill="none"/><path d=" M 10 17 L 8 17 L 8 22 L 13 22 L 13 20 L 10 20 L 10 17 Z  M 8 13 L 10 13 L 10 10 L 13 10 L 13 8 L 8 8 L 8 13 Z  M 20 20 L 17 20 L 17 22 L 22 22 L 22 17 L 20 17 L 20 20 Z  M 17 8 L 17 10 L 20 10 L 20 13 L 22 13 L 22 8 L 17 8 Z " fill="none" vector-effect="non-scaling-stroke" stroke-width="1" stroke="rgb(255,153,0)" stroke-linejoin="miter" stroke-linecap="butt" stroke-miterlimit="4"/></g></svg>