<?xml version="1.0" encoding="UTF-8" standalone="no"?><!-- Generator: Gravit.io --><svg xmlns="http://www.w3.org/2000/svg" xmlns:xlink="http://www.w3.org/1999/xlink" style="isolation:isolate" viewBox="0 0 30 30" width="30pt" height="30pt"><g><path d=" M 3 3 L 27 3 L 27 27 L 3 27 L 3 3 Z " fill="none"/><path d=" M 8 19 L 11 19 L 11 22 L 13 22 L 13 17 L 8 17 L 8 19 Z  M 11 11 L 8 11 L 8 13 L 13 13 L 13 8 L 11 8 L 11 11 Z  M 17 22 L 19 22 L 19 19 L 22 19 L 22 17 L 17 17 L 17 22 Z  M 19 11 L 19 8 L 17 8 L 17 13 L 22 13 L 22 11 L 19 11 Z " fill="none" vector-effect="non-scaling-stroke" stroke-width="1" stroke="rgb(255,153,0)" stroke-linejoin="miter" stroke-linecap="butt" stroke-miterlimit="4"/></g></svg>