<?xml version="1.0" encoding="UTF-8" standalone="no"?><!-- Generator: Gravit.io --><svg xmlns="http://www.w3.org/2000/svg" xmlns:xlink="http://www.w3.org/1999/xlink" style="isolation:isolate" viewBox="0 0 30 30" width="30pt" height="30pt"><g><mask id="_mask_OD39FsCnypV7c07wa7yoguxBvCAUmmf4" x="-200%" y="-200%" width="400%" height="400%"><rect x="-200%" y="-200%" width="400%" height="400%" style="fill:white;"/><path d=" M 13 23 L 13 17 L 17 17 L 17 23 L 22 23 L 22 15 L 25 15 L 15 6 L 5 15 L 8 15 L 8 23 L 13 23 Z " fill="black" stroke="none"/></mask><path d=" M 13 23 L 13 17 L 17 17 L 17 23 L 22 23 L 22 15 L 25 15 L 15 6 L 5 15 L 8 15 L 8 23 L 13 23 Z " fill="none" mask="url(#_mask_OD39FsCnypV7c07wa7yoguxBvCAUmmf4)" vector-effect="non-scaling-stroke" stroke-width="2" stroke="rgb(0,255,255)" stroke-linejoin="miter" stroke-linecap="butt" stroke-miterlimit="4"/><path d=" M 13 23 L 13 17 L 17 17 L 17 23 L 22 23 L 22 15 L 25 15 L 15 6 L 5 15 L 8 15 L 8 23 L 13 23 Z " fill="none"/><path d=" M 3 3 L 27 3 L 27 27 L 3 27 L 3 3 Z " fill="none"/></g></svg>