<?xml version="1.0" encoding="UTF-8" standalone="no"?><!-- Generator: Gravit.io --><svg xmlns="http://www.w3.org/2000/svg" xmlns:xlink="http://www.w3.org/1999/xlink" style="isolation:isolate" viewBox="0 0 30 30" width="30pt" height="30pt"><g><path d=" M 13.408 17.992 L 14.583 19.167 L 18.75 15 L 14.583 10.833 L 13.408 12.008 L 15.558 14.167 L 7.5 14.167 L 7.5 15.833 L 15.558 15.833 L 13.408 17.992 Z  M 20.833 7.5 L 9.167 7.5 C 8.242 7.5 7.5 8.25 7.5 9.167 L 7.5 12.5 L 9.167 12.5 L 9.167 9.167 L 20.833 9.167 L 20.833 20.833 L 9.167 20.833 L 9.167 17.5 L 7.5 17.5 L 7.5 20.833 C 7.5 21.75 8.242 22.5 9.167 22.5 L 20.833 22.5 C 21.75 22.5 22.5 21.75 22.5 20.833 L 22.5 9.167 C 22.5 8.25 21.75 7.5 20.833 7.5 Z " fill="rgb(244,67,54)"/></g></svg>