<?xml version="1.0" encoding="UTF-8" standalone="no"?><!-- Generator: Gravit.io --><svg xmlns="http://www.w3.org/2000/svg" xmlns:xlink="http://www.w3.org/1999/xlink" style="isolation:isolate" viewBox="0 0 30 30" width="30pt" height="30pt"><g><path d=" M 6.5 6.5 L 23.5 6.5 L 23.5 23.5 L 6.5 23.5 L 6.5 6.5 Z " fill="none"/><path d=" M 17.833 14.292 C 19.009 14.292 19.951 13.342 19.951 12.167 C 19.951 10.991 19.009 10.042 17.833 10.042 C 16.658 10.042 15.708 10.991 15.708 12.167 C 15.708 13.342 16.658 14.292 17.833 14.292 Z  M 12.167 14.292 C 13.342 14.292 14.285 13.342 14.285 12.167 C 14.285 10.991 13.342 10.042 12.167 10.042 C 10.991 10.042 10.042 10.991 10.042 12.167 C 10.042 13.342 10.991 14.292 12.167 14.292 Z  M 12.167 15.708 C 10.516 15.708 7.208 16.537 7.208 18.187 L 7.208 19.958 L 17.125 19.958 L 17.125 18.187 C 17.125 16.537 13.817 15.708 12.167 15.708 Z  M 17.833 15.708 C 17.628 15.708 17.394 15.723 17.146 15.744 C 17.968 16.339 18.542 17.139 18.542 18.187 L 18.542 19.958 L 22.792 19.958 L 22.792 18.187 C 22.792 16.537 19.484 15.708 17.833 15.708 Z " fill="rgb(255,255,255)"/></g></svg>