<?xml version="1.0" encoding="UTF-8" standalone="no"?><!-- Generator: Gravit.io --><svg xmlns="http://www.w3.org/2000/svg" xmlns:xlink="http://www.w3.org/1999/xlink" style="isolation:isolate" viewBox="0 0 30 30" width="30pt" height="30pt"><g><path d=" M 18.5 17 L 17.71 17 L 17.43 16.73 C 18.41 15.59 19 14.11 19 12.5 C 19 8.91 16.09 6 12.5 6 C 8.91 6 6 8.91 6 12.5 C 6 16.09 8.91 19 12.5 19 C 14.11 19 15.59 18.41 16.73 17.43 L 17 17.71 L 17 18.5 L 22 23.49 L 23.49 22 L 18.5 17 Z  M 12.5 17 C 10.01 17 8 14.99 8 12.5 C 8 10.01 10.01 8 12.5 8 C 14.99 8 17 10.01 17 12.5 C 17 14.99 14.99 17 12.5 17 Z " fill="none" vector-effect="non-scaling-stroke" stroke-width="1" stroke="rgb(255,255,255)" stroke-linejoin="miter" stroke-linecap="butt" stroke-miterlimit="4"/><path d=" M 3 3 L 27 3 L 27 27 L 3 27 L 3 3 Z " fill="none"/></g></svg>