<?xml version="1.0" encoding="UTF-8" standalone="no"?><!-- Generator: Gravit.io --><svg xmlns="http://www.w3.org/2000/svg" xmlns:xlink="http://www.w3.org/1999/xlink" style="isolation:isolate" viewBox="0 0 30 30" width="30pt" height="30pt"><g><path d=" M 5 5 L 25 5 L 25 25 L 5 25 L 5 5 Z " fill="none"/><path d=" M 20.95 15.78 C 20.98 15.53 21 15.27 21 15 C 21 14.73 20.98 14.47 20.94 14.22 L 22.63 12.9 C 22.78 12.78 22.82 12.56 22.73 12.39 L 21.13 9.62 C 21.03 9.44 20.82 9.38 20.64 9.44 L 18.65 10.24 C 18.23 9.92 17.79 9.66 17.3 9.46 L 17 7.34 C 16.97 7.14 16.8 7 16.6 7 L 13.4 7 C 13.2 7 13.04 7.14 13.01 7.34 L 12.71 9.46 C 12.22 9.66 11.77 9.93 11.36 10.24 L 9.37 9.44 C 9.19 9.37 8.98 9.44 8.88 9.62 L 7.28 12.39 C 7.18 12.57 7.22 12.78 7.38 12.9 L 9.07 14.22 C 9.03 14.47 9 14.74 9 15 C 9 15.26 9.02 15.53 9.06 15.78 L 7.37 17.1 C 7.22 17.22 7.18 17.44 7.27 17.61 L 8.87 20.38 C 8.97 20.56 9.18 20.62 9.36 20.56 L 11.35 19.76 C 11.77 20.08 12.21 20.34 12.7 20.54 L 13 22.66 C 13.04 22.86 13.2 23 13.4 23 L 16.6 23 C 16.8 23 16.97 22.86 16.99 22.66 L 17.29 20.54 C 17.78 20.34 18.23 20.07 18.64 19.76 L 20.63 20.56 C 20.81 20.63 21.02 20.56 21.12 20.38 L 22.72 17.61 C 22.82 17.43 22.78 17.22 22.62 17.1 L 20.95 15.78 Z  M 15 18 C 13.35 18 12 16.65 12 15 C 12 13.35 13.35 12 15 12 C 16.65 12 18 13.35 18 15 C 18 16.65 16.65 18 15 18 Z " fill="rgb(255,255,255)"/></g></svg>