<?xml version="1.0" encoding="UTF-8" standalone="no"?><!-- Generator: Gravit.io --><svg xmlns="http://www.w3.org/2000/svg" xmlns:xlink="http://www.w3.org/1999/xlink" style="isolation:isolate" viewBox="0 0 30 30" width="30pt" height="30pt"><g><path d=" M 3 3 L 27 3 L 27 27 L 3 27 L 3 3 Z " fill="none"/><path d=" M 19 9 L 19 7 C 19 5.89 18.11 5 17 5 L 13 5 C 11.89 5 11 5.89 11 7 L 11 9 L 5 9 L 5 22 C 5 23.11 5.89 24 7 24 L 23 24 C 24.11 24 25 23.11 25 22 L 25 9 L 19 9 Z  M 13 7 L 17 7 L 17 9 L 13 9 L 13 7 Z  M 12 21 L 12 12 L 19.5 16 L 12 21 Z " fill="none" vector-effect="non-scaling-stroke" stroke-width="1" stroke="rgb(255,255,255)" stroke-linejoin="miter" stroke-linecap="butt" stroke-miterlimit="4"/></g></svg>