<?xml version="1.0" encoding="UTF-8" standalone="no"?><!-- Generator: Gravit.io --><svg xmlns="http://www.w3.org/2000/svg" xmlns:xlink="http://www.w3.org/1999/xlink" style="isolation:isolate" viewBox="0 0 30 30" width="30pt" height="30pt"><g><path d=" M 3 3 L 27 3 L 27 27 L 3 27 L 3 3 Z " fill="none"/><path d=" M 6 8 L 4 8 L 4 24 C 4 25.1 4.9 26 6 26 L 22 26 L 22 24 L 6 24 L 6 8 Z  M 24 4 L 10 4 C 8.9 4 8 4.9 8 6 L 8 20 C 8 21.1 8.9 22 10 22 L 24 22 C 25.1 22 26 21.1 26 20 L 26 6 C 26 4.9 25.1 4 24 4 Z  M 24 20 L 10 20 L 10 6 L 24 6 L 24 20 Z  M 20 16 L 16 16 L 16 14 L 18 14 C 19.1 14 20 13.11 20 12 L 20 10 C 20 8.89 19.1 8 18 8 L 14 8 L 14 10 L 18 10 L 18 12 L 16 12 C 14.9 12 14 12.89 14 14 L 14 18 L 20 18 L 20 16 Z " fill="rgb(255,255,255)"/></g></svg>